<svg xmlns="http://www.w3.org/2000/svg" xmlns:xlink="http://www.w3.org/1999/xlink" width="48" zoomAndPan="magnify" viewBox="0 0 36 36.000001" height="48" preserveAspectRatio="xMidYMid meet" version="1.0"><defs><clipPath id="d5ab1bceca"><path d="M 0.488281 0 L 35.511719 0 L 35.511719 35.027344 L 0.488281 35.027344 Z M 0.488281 0 " clip-rule="nonzero"/></clipPath><clipPath id="7045b478c8"><path d="M 25.734375 17.511719 L 34.492188 17.511719 L 34.492188 20.433594 L 25.734375 20.433594 Z M 25.734375 17.511719 " clip-rule="nonzero"/></clipPath></defs><g clip-path="url(#d5ab1bceca)"><path fill="#000000" d="M 18 0 C 8.332031 0 0.488281 7.84375 0.488281 17.511719 C 0.488281 27.179688 8.332031 35.027344 18 35.027344 C 27.667969 35.027344 35.515625 27.179688 35.515625 17.511719 C 35.515625 7.84375 27.667969 0 18 0 Z M 9.597656 28.070312 C 8.984375 28.699219 7.957031 28.699219 7.34375 28.058594 C 6.746094 27.433594 6.832031 26.417969 7.441406 25.820312 C 9.292969 24.050781 11.492188 22.046875 13.660156 20.128906 C 14.132812 20.394531 14.675781 20.53125 15.230469 20.53125 C 15.441406 20.53125 15.636719 20.519531 15.84375 20.492188 C 16.066406 20.460938 16.261719 20.503906 16.429688 20.601562 C 14.175781 23.148438 11.710938 25.886719 9.597656 28.070312 Z M 26.515625 28.140625 C 25.984375 28.683594 25.09375 28.683594 24.582031 28.128906 C 21.992188 25.414062 19.417969 22.242188 17.375 20.074219 C 16.957031 19.613281 16.316406 19.390625 15.691406 19.503906 C 15.675781 19.503906 15.675781 19.503906 15.675781 19.503906 C 14.996094 19.601562 14.285156 19.445312 13.800781 18.960938 C 9.488281 14.71875 5.898438 10.167969 7.234375 7.109375 L 18.179688 18.054688 C 18.179688 18.054688 22.925781 22.648438 26.515625 26.222656 C 27.054688 26.75 27.054688 27.597656 26.515625 28.140625 Z M 28.949219 11.03125 L 22.9375 17.039062 C 22.132812 17.777344 20.992188 17.945312 20.03125 17.554688 C 19.765625 17.445312 19.449219 17.484375 19.195312 17.640625 C 19.042969 17.472656 18.933594 17.375 18.933594 17.375 L 17.945312 16.386719 C 18.113281 16.136719 18.140625 15.816406 18.027344 15.539062 C 17.625 14.566406 17.804688 13.4375 18.542969 12.632812 L 24.550781 6.621094 C 24.691406 6.480469 24.929688 6.480469 25.066406 6.621094 C 25.207031 6.761719 25.207031 6.996094 25.066406 7.136719 L 20.085938 12.117188 C 19.863281 12.339844 19.878906 12.714844 20.128906 12.921875 C 20.335938 13.089844 20.671875 13.0625 20.878906 12.851562 L 25.847656 7.886719 C 25.984375 7.75 26.222656 7.75 26.359375 7.886719 C 26.5 8.027344 26.5 8.261719 26.359375 8.402344 L 21.382812 13.382812 C 21.160156 13.605469 21.171875 13.980469 21.421875 14.1875 C 21.632812 14.355469 21.964844 14.328125 22.171875 14.121094 L 27.140625 9.179688 C 27.277344 9.042969 27.515625 9.042969 27.65625 9.179688 C 27.792969 9.320312 27.792969 9.554688 27.65625 9.695312 L 22.675781 14.675781 C 22.453125 14.898438 22.464844 15.273438 22.714844 15.484375 C 22.925781 15.648438 23.257812 15.621094 23.46875 15.414062 L 28.433594 10.445312 C 28.574219 10.308594 28.808594 10.308594 28.949219 10.445312 C 29.101562 10.585938 29.101562 10.824219 28.949219 11.03125 Z M 28.949219 11.03125 " fill-opacity="1" fill-rule="nonzero"/></g><g clip-path="url(#7045b478c8)"><path fill="#000000" d="M 34.492188 18.9375 C 34.492188 19.339844 34.332031 19.6875 34.015625 19.984375 C 33.691406 20.28125 33.300781 20.429688 32.839844 20.429688 C 32.378906 20.429688 31.972656 20.292969 31.632812 20.015625 C 31.285156 19.738281 31.113281 19.402344 31.113281 19.003906 C 31.113281 18.605469 31.269531 18.257812 31.589844 17.960938 C 31.914062 17.664062 32.300781 17.515625 32.761719 17.515625 C 33.226562 17.515625 33.628906 17.652344 33.972656 17.925781 C 34.320312 18.207031 34.492188 18.542969 34.492188 18.9375 Z M 29.113281 18.9375 C 29.113281 19.339844 28.957031 19.6875 28.636719 19.984375 C 28.3125 20.28125 27.925781 20.429688 27.464844 20.429688 C 27 20.429688 26.597656 20.292969 26.253906 20.015625 C 25.910156 19.738281 25.734375 19.402344 25.734375 19.003906 C 25.734375 18.605469 25.894531 18.257812 26.21875 17.960938 C 26.535156 17.664062 26.925781 17.515625 27.386719 17.515625 C 27.847656 17.515625 28.253906 17.652344 28.59375 17.925781 C 28.941406 18.207031 29.113281 18.542969 29.113281 18.9375 Z M 29.113281 18.9375 " fill-opacity="1" fill-rule="nonzero"/></g></svg>